# xmcd
# 
# Track frame offsets:
#     150
#     16118
#     26680
#     56117
#     71370
#     87372
#     103377
#     127152
#     144242
#     163895
#     179330
# 
# Disc length: 2665
# 
# Revision: 7
# Processed by: cddbd v1.5.2PL0 Copyright (c) Steve Scherf et al.
# Submitted via: fre:ac v1.0.31
# 
DISCID=9a0a670b
DTITLE=The Rolling Stones - Tattoo You
DYEAR=1981
DGENRE=Rock/Pop
TTITLE0=Start Me Up
TTITLE1=Hang Fire
TTITLE2=Slave
TTITLE3=Little T&A
TTITLE4=Black Limosine
TTITLE5=Neighbours
TTITLE6=Worried About You
TTITLE7=Tops
TTITLE8=Heaven
TTITLE9=No Use In Crying
TTITLE10=Waiting On A Friend
EXTD=YEAR: 1981
EXTT0=
EXTT1=
EXTT2=
EXTT3=
EXTT4=
EXTT5=
EXTT6=
EXTT7=
EXTT8=
EXTT9=
EXTT10=
PLAYORDER=
